#!OML:ASF Y:\EmotionMaleHayes\Project 1\Capture day 1\Session 1\Male1.ASF
:FULLY-SPECIFIED
:DEGREES
1012
root 16.3031 17.2312 0.12616 166.454 98.3298 158.196
lowerback 8.1649 3.00647 -0.110571
upperback 5.75772 4.16302 -0.197257
thorax 1.39614 2.15905 -0.420274
lowerneck -23.9382 1.57732 6.2517
upperneck 37.5406 1.55992 -2.12739
head 18.1536 1.54314 -1.64363
rclavicle -6.26172e-015 1.59028e-015
rhumerus 31.187 19.4511 -50.8304
rradius 36.7006
rwrist 6.70934
rhand -1.4783 -24.8865
rfingers 7.12502
rthumb 24.1737 -53.3831
lclavicle -6.26172e-015 1.59028e-015
lhumerus 33.283 -18.9227 36.5743
lradius 38.0674
lwrist -1.89778
lhand 1.12042 -27.8817
lfingers 7.12502
lthumb 26.6631 0.260451
rfemur 13.4287 -0.844898 10.9924
rtibia 17.0624
rfoot -6.34163 3.7427
rtoes -2.09798
lfemur -20.0848 0.869813 -16.0024
ltibia 18.3111
lfoot -7.88697 10.9103
ltoes 8.34695
1013
root 16.3848 17.2587 0.116414 164.628 98.2274 156.244
lowerback 8.08611 2.95701 -0.0913402
upperback 5.67395 4.094 -0.125363
thorax 1.34758 2.12175 -0.351138
lowerneck -23.3628 1.67188 6.5611
upperneck 37.2133 1.81322 -2.62306
head 17.8484 1.60869 -1.87027
rclavicle 8.54774e-015 8.94531e-015
rhumerus 31.0368 19.4276 -50.6424
rradius 36.7173
rwrist 6.52094
rhand -1.36725 -24.7969
rfingers 7.12502
rthumb 24.2802 -53.2794
lclavicle 8.54774e-015 8.94531e-015
lhumerus 33.2257 -19.1921 36.6591
lradius 38.1429
lwrist -1.8351
lhand 1.11785 -27.9405
lfingers 7.12502
lthumb 26.6606 0.202005
rfemur 13.2219 -1.47998 11.1307
rtibia 16.6921
rfoot -6.72017 3.24874
rtoes -1.40949
lfemur -19.6737 0.652157 -15.8262
ltibia 17.8531
lfoot -8.05066 10.8812
ltoes 8.84055
1014
root 16.4671 17.2867 0.107254 162.939 98.1942 154.447
lowerback 7.9493 2.87889 -0.199061
upperback 5.63486 3.98134 -0.059165
thorax 1.36927 2.05995 -0.209524
lowerneck -23.2188 1.58296 6.36331
upperneck 37.2605 1.71095 -2.44046
head 17.8252 1.57024 -1.77314
rclavicle -1.39149e-015 -1.11319e-014
rhumerus 31.042 19.5544 -50.4555
rradius 36.7853
rwrist 6.07255
rhand -1.64009 -24.8442
rfingers 7.12502
rthumb 24.0185 -53.3614
lclavicle -1.39149e-015 -1.11319e-014
lhumerus 33.249 -19.5105 36.3262
lradius 38.1526
lwrist -1.49674
lhand 0.92324 -27.9505
lfingers 7.12502
lthumb 26.4744 0.22023
rfemur 13.0233 -1.85793 11.3819
rtibia 16.2383
rfoot -7.02163 2.34617
rtoes -1.2236
lfemur -19.2238 0.483213 -15.625
ltibia 17.396
lfoot -8.13207 10.8373
ltoes 8.52426
1015
root 16.5491 17.3124 0.100884 161.738 98.216 153.194
lowerback 7.86776 2.84559 -0.349057
upperback 5.64938 3.92912 -0.0726472
thorax 1.4201 2.02991 -0.131477
lowerneck -23.1341 1.73476 6.85648
upperneck 37.0951 1.89797 -2.87794
head 17.739 1.64412 -2.02084
rclavicle 1.53064e-014 -3.97569e-016
rhumerus 31.0318 19.2959 -50.6649
rradius 36.7665
rwrist 5.85876
rhand -2.0765 -25.0716
rfingers 7.12502
rthumb 23.6 -53.6434
lclavicle 1.53064e-014 -3.97569e-016
lhumerus 33.5916 -19.9021 35.6977
lradius 38.0922
lwrist -0.830819
lhand 0.360101 -27.7648
lfingers 7.12502
lthumb 25.9352 0.485929
rfemur 12.8379 -2.18296 11.5575
rtibia 15.8997
rfoot -7.37684 1.48096
rtoes -1.59136
lfemur -18.6778 0.313887 -15.4647
ltibia 16.8842
lfoot -8.17972 10.8868
ltoes 7.82222
1016
root 16.6255 17.336 0.0930901 161.163 98.2331 152.59
lowerback 7.85102 2.88328 -0.491433
upperback 5.97764 3.98934 -0.145955
thorax 1.76707 2.06328 -0.118203
lowerneck -24.5082 1.93908 7.01142
upperneck 37.3638 2.02663 -2.96467
head 18.2572 1.69229 -2.06848
rclavicle -8.84592e-015 8.74653e-015
rhumerus 31.4885 18.3294 -50.7643
rradius 36.6522
rwrist 5.6523
rhand -2.25746 -25.2473
rfingers 7.12502
rthumb 23.4264 -53.8413
lclavicle -8.84592e-015 8.74653e-015
lhumerus 34.4203 -19.3862 35.543
lradius 38.0022
lwrist -0.738529
lhand 0.045684 -27.7057
lfingers 7.12502
lthumb 25.6341 0.588811
rfemur 12.5859 -2.57581 11.573
rtibia 15.6331
rfoot -7.65541 0.78666
rtoes -1.38506
lfemur -18.1377 0.149347 -15.4051
ltibia 16.3926
lfoot -8.25344 10.9659
ltoes 7.52006
1017
root 16.7067 17.355 0.0790074 161.116 98.194 152.517
lowerback 7.79184 2.89356 -0.641124
upperback 5.81283 3.98563 -0.159869
thorax 1.61902 2.05406 -0.0520062
lowerneck -23.9636 1.8987 6.93062
upperneck 37.3643 2.08501 -2.97862
head 18.1194 1.71198 -2.04588
rclavicle -8.15017e-015 -3.97569e-016
rhumerus 31.1436 18.2605 -50.7422
rradius 36.7455
rwrist 5.04357
rhand -2.24171 -25.5337
rfingers 7.12502
rthumb 23.4415 -54.1258
lclavicle -8.15017e-015 -3.97569e-016
lhumerus 34.15 -19.2567 36.2369
lradius 38.0808
lwrist -1.18009
lhand -0.0458268 -27.7991
lfingers 7.12502
lthumb 25.5465 0.507929
rfemur 12.3994 -3.12821 11.401
rtibia 15.1766
rfoot -7.83067 0.367929
rtoes -1.02463
lfemur -17.5831 0.00648793 -15.5343
ltibia 15.9182
lfoot -8.40389 10.941
ltoes 7.72581
1018
root 16.7903 17.3697 0.0624784 161.084 98.2946 152.484
lowerback 7.66813 2.92293 -0.692658
upperback 5.88972 4.02724 -0.241834
thorax 1.76963 2.0755 -0.0998524
lowerneck -24.1788 1.88858 6.95364
upperneck 37.3842 2.04616 -3.01154
head 18.1841 1.69182 -2.07514
rclavicle -1.23246e-014 -3.57812e-015
rhumerus 31.1949 17.874 -50.796
rradius 36.7949
rwrist 4.3587
rhand -2.42741 -25.8879
rfingers 7.12502
rthumb 23.2634 -54.5026
lclavicle -1.23246e-014 -3.57812e-015
lhumerus 34.189 -18.9203 36.546
lradius 38.2132
lwrist -1.26759
lhand -0.354933 -27.828
lfingers 7.12502
lthumb 25.2504 0.521161
rfemur 12.1638 -3.49577 11.3181
rtibia 14.7771
rfoot -8.08665 0.217487
rtoes -1.66419
lfemur -16.9644 0.00413455 -15.6128
ltibia 15.4075
lfoot -8.5138 10.9267
ltoes 7.83416
1019
root 16.8683 17.3806 0.0514231 161.046 98.4543 152.514
lowerback 7.61757 2.99172 -0.806287
upperback 5.97033 4.11762 -0.285092
thorax 1.87687 2.11905 -0.0805476
lowerneck -24.2732 1.88986 6.97657
upperneck 37.3878 2.07019 -3.11339
head 18.2139 1.68783 -2.12232
rclavicle 1.11319e-014 5.96354e-015
rhumerus 31.2041 17.4372 -50.9615
rradius 36.7462
rwrist 3.91896
rhand -2.65762 -26.0727
rfingers 7.12502
rthumb 23.0425 -54.7151
lclavicle 1.11319e-014 5.96354e-015
lhumerus 34.311 -18.7367 36.7267
lradius 38.3402
lwrist -1.07562
lhand -0.670458 -27.7976
lfingers 7.12502
lthumb 24.948 0.593876
rfemur 11.9229 -3.54583 11.3766
rtibia 14.5349
rfoot -8.5455 0.0474554
rtoes -1.76918
lfemur -16.3294 0.13465 -15.6199
ltibia 14.9677
lfoot -8.48752 10.9026
ltoes 7.07265
1020
root 16.9449 17.3861 0.0420584 161.774 98.5035 153.358
lowerback 7.65251 3.03915 -1.09515
upperback 5.93421 4.16317 -0.345208
thorax 1.80476 2.13391 0.0115638
lowerneck -24.0264 1.89764 6.98886
upperneck 37.33 2.10971 -3.12629
head 18.121 1.70516 -2.12002
rclavicle 9.14409e-015 -7.15625e-015
rhumerus 31.1337 17.2048 -51.0478
rradius 36.6502
rwrist 3.41961
rhand -2.51132 -26.4014
rfingers 7.12502
rthumb 23.1829 -55.0262
lclavicle 9.14409e-015 -7.15625e-015
lhumerus 34.2614 -18.7735 36.8013
lradius 38.5343
lwrist -0.757178
lhand -0.92969 -27.7159
lfingers 7.12502
lthumb 24.6996 0.709826
rfemur 11.777 -3.6346 11.231
rtibia 14.2459
rfoot -8.93684 -0.13559
rtoes -0.606242
lfemur -15.7034 0.236109 -15.8179
ltibia 14.6259
lfoot -8.44439 10.821
ltoes 5.95215
1021
root 17.0211 17.3913 0.02617 162.97 98.5138 154.585
lowerback 7.64694 3.0868 -1.27664
upperback 5.86783 4.21444 -0.49921
thorax 1.73772 2.15637 -0.0511189
lowerneck -24.0207 1.88253 7.03242
upperneck 37.3904 2.06437 -3.09973
head 18.1507 1.70116 -2.12585
rclavicle 2.22639e-014 -7.95139e-015
rhumerus 31.1597 17.0545 -50.9172
rradius 36.5421
rwrist 2.50238
rhand -2.77224 -26.722
rfingers 7.12502
rthumb 22.9325 -55.3782
lclavicle 2.22639e-014 -7.95139e-015
lhumerus 34.2793 -18.8342 36.7739
lradius 38.7976
lwrist -0.459178
lhand -1.20291 -27.7079
lfingers 7.12502
lthumb 24.4377 0.753415
rfemur 11.4577 -3.89972 10.9051
rtibia 14.0209
rfoot -9.14342 -0.184902
rtoes 0.460698
lfemur -15.2277 0.266782 -16.1399
ltibia 14.3748
lfoot -8.49928 10.757
ltoes 5.36523
1022
root 17.0977 17.3967 0.0104833 163.844 98.5812 155.554
lowerback 7.62516 3.14917 -1.37518
upperback 5.88657 4.2955 -0.650267
thorax 1.77371 2.19728 -0.154219
lowerneck -24.125 1.91024 7.24211
upperneck 37.4308 2.0788 -3.27938
head 18.2084 1.71154 -2.24513
rclavicle -8.15017e-015 -8.34896e-015
rhumerus 31.194 16.6888 -51.0634
rradius 36.3621
rwrist 2.0437
rhand -3.38511 -26.7373
rfingers 7.12502
rthumb 22.3443 -55.4652
lclavicle -8.15017e-015 -8.34896e-015
lhumerus 34.4167 -18.7111 36.8475
lradius 39.0105
lwrist -0.360833
lhand -1.36279 -27.7476
lfingers 7.12502
lthumb 24.2844 0.73424
rfemur 11.206 -4.14584 10.624
rtibia 13.761
rfoot -9.37825 -0.0369637
rtoes 0.634949
lfemur -14.6796 0.350944 -16.4047
ltibia 14.116
lfoot -8.6576 10.7257
ltoes 5.31303
1023
root 17.1738 17.4005 -6.13168e-005 164.839 98.6806 156.779
lowerback 7.64576 3.18652 -1.64229
upperback 5.95578 4.33658 -0.758145
thorax 1.82422 2.21316 -0.118086
lowerneck -24.0525 1.97976 7.42069
upperneck 37.4795 2.20859 -3.48424
head 18.2348 1.76227 -2.34508
rclavicle 2.5842e-015 -1.07344e-014
rhumerus 31.2575 16.1972 -51.5634
rradius 36.1418
rwrist 2.07666
rhand -3.59022 -26.8136
rfingers 7.12502
rthumb 22.1474 -55.565
lclavicle 2.5842e-015 -1.07344e-014
lhumerus 34.5005 -18.6065 36.7562
lradius 39.1401
lwrist -0.123287
lhand -1.7631 -27.8401
lfingers 7.12502
lthumb 23.9006 0.692646
rfemur 11.1214 -4.2741 10.3507
rtibia 13.3952
rfoot -9.56287 0.0802696
rtoes -0.524012
lfemur -13.9527 0.409625 -16.6707
ltibia 13.767
lfoot -8.79918 10.7849
ltoes 4.83765
1024
root 17.2443 17.4032 -0.0089792 166.159 98.791 158.292
lowerback 7.71304 3.24708 -1.98307
upperback 5.98271 4.40019 -0.839429
thorax 1.7974 2.23728 -0.0201735
lowerneck -24.0078 1.946 7.20926
upperneck 37.4733 2.18099 -3.2984
head 18.2102 1.74808 -2.22591
rclavicle 3.18055e-015 -8.74653e-015
rhumerus 31.3141 15.7959 -51.8274
rradius 36.0321
rwrist 1.95651
rhand -3.47357 -27.16
rfingers 7.12502
rthumb 22.2594 -55.8981
lclavicle 3.18055e-015 -8.74653e-015
lhumerus 34.5697 -18.6255 36.6037
lradius 39.2978
lwrist 0.27601
lhand -2.13979 -28.1603
lfingers 7.12502
lthumb 23.5393 0.419283
rfemur 10.8243 -4.25706 10.0855
rtibia 13.234
rfoot -9.67582 -0.0507707
rtoes -0.288172
lfemur -13.3393 0.413087 -16.9303
ltibia 13.5051
lfoot -8.93116 10.9069
ltoes 4.11192
1025
root 17.31 17.4024 -0.0173227 167.747 98.9369 160.015
lowerback 7.77974 3.35892 -2.32799
upperback 5.96886 4.52826 -0.928635
thorax 1.72736 2.29346 0.0658078
lowerneck -23.9412 1.94502 7.1967
upperneck 37.4799 2.25387 -3.42797
head 18.2039 1.75791 -2.26841
rclavicle -2.00773e-014 3.18055e-014
rhumerus 31.3457 15.472 -51.9155
rradius 35.9053
rwrist 1.92234
rhand -3.39443 -27.5127
rfingers 7.12502
rthumb 22.3354 -56.2417
lclavicle -2.00773e-014 3.18055e-014
lhumerus 34.5606 -18.6176 36.6745
lradius 39.5784
lwrist 0.423725
lhand -2.24745 -28.2767
lfingers 7.12502
lthumb 23.436 0.316084
rfemur 10.3251 -4.25647 9.78022
rtibia 13.3077
rfoot -9.91779 -0.118751
rtoes 0.725928
lfemur -12.8456 0.588597 -17.2098
ltibia 13.3918
lfoot -9.13549 10.8566
ltoes 4.20189
1026
root 17.3771 17.404 -0.0257143 169.223 98.9793 161.664
lowerback 7.86555 3.42911 -2.66363
upperback 5.9203 4.59885 -1.05586
thorax 1.61485 2.32249 0.108291
lowerneck -23.8014 1.98291 7.38611
upperneck 37.5252 2.35406 -3.66344
head 18.2096 1.79631 -2.3908
rclavicle -1.72943e-014 1.63003e-014
rhumerus 31.3478 15.3538 -51.9367
rradius 35.7401
rwrist 1.83845
rhand -3.69643 -27.5303
rfingers 7.12502
rthumb 22.0455 -56.2938
lclavicle -1.72943e-014 1.63003e-014
lhumerus 34.6368 -18.724 36.6197
lradius 39.7315
lwrist 0.479762
lhand -2.304 -28.24
lfingers 7.12502
lthumb 23.3818 0.359655
rfemur 9.93978 -4.37806 9.45834
rtibia 13.3079
rfoot -10.2411 -0.126111
rtoes -0.11016
lfemur -12.3424 0.810983 -17.5636
ltibia 13.3522
lfoot -9.38118 10.6442
ltoes 4.19923
